<svg t="1772122352262" class="icon" viewBox="0 0 1024 1024" version="1.1" xmlns="http://www.w3.org/2000/svg" p-id="11824" width="200" height="200"><path d="M73.142857 512a438.857143 438.857143 0 1 0 877.714286 0 438.857143 438.857143 0 1 0-877.714286 0Z" fill="#F93339" p-id="11825"></path><path d="M392.557714 323.949714m30.179287 31.558758l241.585948 252.628645q30.179287 31.558757-1.379471 61.738044l-0.052862 0.050551q-31.558757 30.179287-61.738044-1.37947l-241.585948-252.628645q-30.179287-31.558757 1.379471-61.738044l0.052862-0.050552q31.558757-30.179287 61.738044 1.379471Z" fill="#FFFFFF" p-id="11826"></path><path d="M700.050286 392.557714m-31.558758 30.179287l-252.628645 241.585948q-31.558757 30.179287-61.738044-1.379471l-0.050551-0.052862q-30.179287-31.558757 1.37947-61.738044l252.628645-241.585948q31.558757-30.179287 61.738044 1.379471l0.050552 0.052862q30.179287 31.558757-1.379471 61.738044Z" fill="#FFFFFF" p-id="11827"></path></svg>