<svg viewBox="0 0 1024 1024" xmlns="http://www.w3.org/2000/svg">
  <path d="M593.875495 486.872615l374.153847-373.838769a57.580308 57.580308 0 0 0 0-81.683692 57.580308 57.580308 0 0 0-81.604924 0L512.113034 405.110154 137.72288 31.192615a57.580308 57.580308 0 0 0-81.604923 0 57.580308 57.580308 0 0 0 0 81.683693l374.153846 373.917538-374.153846 373.996308a57.580308 57.580308 0 0 0 40.802461 98.540308c14.808615 0 29.538462-5.513846 40.802462-16.856616l374.390154-373.917538 374.311384 374.075077c11.264 11.264 25.993846 16.856615 40.802462 16.856615s29.538462-5.513846 40.802462-16.856615a57.580308 57.580308 0 0 0 0-81.683693l-374.153847-374.075077z" fill="#dddddd"/>
</svg>
