<svg viewBox="0 0 1024 1024" xmlns="http://www.w3.org/2000/svg">
  <path d="M665.5 788.5H235.8c-62.8 0-113.9-51.1-113.9-113.9V244.9c0-62.8 51.1-113.9 113.9-113.9h429.7c62.8 0 113.9 51.1 113.9 113.9v429.7c0 62.8-51.1 113.9-113.9 113.9zM235.8 201c-24.2 0-43.9 19.7-43.9 43.9v429.7c0 24.2 19.7 43.9 43.9 43.9h429.7c24.2 0 43.9-19.7 43.9-43.9V244.9c0-24.2-19.7-43.9-43.9-43.9H235.8zM816.2 893H386.5c-62.8 0-113.9-51.1-113.9-113.9v-70h70v70c0 24.2 19.7 43.9 43.9 43.9h429.7c24.2 0 43.9-19.7 43.9-43.9V349.3c0-24.2-19.7-43.9-43.9-43.9h-70v-70h70c62.8 0 113.9 51.1 113.9 113.9v429.7c0 62.8-51.1 114-113.9 114z" fill="#dddddd"/>
</svg>
